Patient5_TMGait_0pt45_1_left_08_GRF.mot
version=1
nRows=26
nColumns=19
inDegrees=no
endheader
time	F1x	F1y	F1z	M1x	M1y	M1z	F2x	F2y	F2z	M2x	M2y	M2z	EC1x	EC1y	EC1z	EC2x	EC2y	EC2z
11.75	13.0991	94.1139	5.962	-38.3539	3.6452	90.3023	-4.384	700.453	-23.5341	277.0093	43.0069	783.0033	-0.0592	0.0182	-0.0073	-0.0462	0.0165	0.9585
11.7673	11.1157	82.3169	2.751	-32.0723	4.1469	76.025	-21.052	740.3442	-30.8391	294.9967	51.6678	820.4798	-0.0592	0.0182	-0.0073	-0.0462	0.0165	0.9585
11.7846	7.9419	66.589	0.33694	-24.9127	3.8653	59.4972	-30.6753	786.4378	-37.3979	315.2898	57.8245	862.9503	-0.0592	0.0182	-0.0073	-0.0462	0.0165	0.9585
11.8019	4.3682	49.4011	-1.0044	-17.8307	2.9286	42.9658	-32.3345	831.4963	-42.679	334.7491	60.8015	903.0357	-0.0592	0.0182	-0.0073	-0.0462	0.0165	0.9585
11.8191	1.3394	33.1705	-1.4189	-11.5764	1.7513	28.2787	-27.3939	868.9518	-47.1239	350.5618	61.4035	934.3399	-0.0592	0.0182	-0.0073	-0.0462	0.0165	0.9585
11.8364	-0.41122	19.6455	-1.2763	-6.6129	0.81009	16.5696	-18.634	894.5995	-51.4508	360.9517	61.1467	953.1161	-0.0592	0.0182	-0.0073	-0.0462	0.0165	0.9585
11.8537	-0.91892	9.8792	-0.94096	-3.1673	0.30252	8.3969	-9.5169	906.9995	-55.9213	365.391	61.369	958.5535	-0.0592	0.0182	-0.0073	-0.0462	0.0165	0.9585
11.871	-0.75241	3.9552	-0.61504	-1.1623	0.12326	3.6365	-2.8498	906.8799	-60.1209	364.3587	62.5365	951.9286	-0.0592	0.0182	-0.0073	-0.0462	0.0165	0.9585
11.8883	-0.33415	1.0851	-0.36952	-0.25538	0.13061	1.5236	0.51023	896.46	-63.3549	358.9854	64.1412	935.6849	-0.0592	0.0182	-0.0073	-0.0462	0.0165	0.9585
11.9056	0.11243	0.22426	-0.20802	-0.039933	0.21919	1.0796	1.5344	879.0971	-65.3225	350.8078	65.4046	913.0734	-0.0592	0.0182	-0.0073	-0.0462	0.0165	0.9585
11.9229	0.49084	0.42403	-0.12045	-0.16934	0.3339	1.4343	1.8519	858.6768	-66.3072	341.4861	65.9104	887.7361	-0.0592	0.0182	-0.0073	-0.0462	0.0165	0.9585
11.9401	0.77323	0.96357	-0.070756	-0.38722	0.42865	1.9557	2.7938	838.9368	-66.7082	332.5691	65.5189	863.1831	-0.0592	0.0182	-0.0073	-0.0462	0.0165	0.9585
11.9574	0.97454	1.3158	-0.0069774	-0.51242	0.45868	2.1885	5.1148	822.9621	-66.7293	325.3301	64.1543	842.2954	-0.0592	0.0182	-0.0073	-0.0462	0.0165	0.9585
11.9747	1.1287	1.0822	0.10115	-0.40572	0.40009	1.7359	9.0222	812.7742	-66.4092	320.602	61.8072	826.9205	-0.0592	0.0182	-0.0073	-0.0462	0.0165	0.9585
11.992	1.2487	-0.021438	0.27735	0.039839	0.224	0.28075	14.2498	809.1434	-65.7769	318.6852	58.6445	817.7297	-0.0592	0.0182	-0.0073	-0.0462	0.0165	0.9585
12.0093	1.2956	-2.1323	0.52937	0.87419	-0.09399	-2.3284	20.2181	811.6222	-64.9596	319.3574	55.0453	814.2822	-0.0592	0.0182	-0.0073	-0.0462	0.0165	0.9585
12.0266	1.1845	-5.1246	0.81619	2.0382	-0.5347	-5.9476	26.2097	818.7477	-64.1366	321.9618	51.4958	815.2397	-0.0592	0.0182	-0.0073	-0.0462	0.0165	0.9585
12.0439	0.81102	-8.3788	1.0257	3.2811	-0.99409	-9.8746	31.5811	828.4714	-63.432	325.5947	48.3939	818.7509	-0.0592	0.0182	-0.0073	-0.0462	0.0165	0.9585
12.0611	0.055959	-10.4686	0.93673	4.041	-1.2284	-12.4411	35.8907	838.6141	-62.8849	329.308	45.9557	822.8695	-0.0592	0.0182	-0.0073	-0.0462	0.0165	0.9585
12.0784	-1.187	-8.7892	0.18489	3.308	-0.81278	-10.5684	38.9372	846.997	-62.4651	332.1803	44.2149	825.6483	-0.0592	0.0182	-0.0073	-0.0462	0.0165	0.9585
12.0957	-2.9145	0.60134	-1.6937	-0.44271	0.85149	0.43141	40.6656	851.441	-62.0654	333.3275	43.0737	825.1135	-0.0592	0.0182	-0.0073	-0.0462	0.0165	0.9585
12.113	-4.8634	22.743	-5.1651	-9.1435	4.475	26.56	41.0539	849.7177	-61.5108	331.8824	42.3574	819.2312	-0.0592	0.0182	-0.0073	-0.0462	0.0165	0.9585
12.1303	-6.3433	62.638	-10.4849	-24.6795	10.68	73.8015	40.0006	839.4948	-60.5874	326.9704	41.8905	805.9074	-0.0592	0.0182	-0.0073	-0.0462	0.0165	0.9585
12.1476	-6.1122	122.7364	-17.2722	-47.9172	19.5319	145.1789	37.3312	818.4362	-59.0352	317.7463	41.4883	783.0599	-0.0592	0.0182	-0.0073	-0.0462	0.0165	0.9585
12.1649	-3.6332	199.8529	-23.9148	-77.4964	29.3112	236.9965	32.9391	784.6546	-56.5984	303.5658	40.9513	748.9999	-0.0592	0.0182	-0.0073	-0.0462	0.0165	0.9585
12.1821	-2.2572	283.4269	-27.0914	-109.189	34.7297	336.7838	27.0255	737.4967	-53.0894	284.2848	40.0338	703.0864	-0.0592	0.0182	-0.0073	-0.0462	0.0165	0.9585
